<?xml version="1.0" encoding="UTF-8"?>
<svg id="Layer_2" data-name="Layer 2" xmlns="http://www.w3.org/2000/svg" viewBox="0 0 1829.29 367.07">
  <defs>
    <style>
      .cls-1 {
        fill: #fff;
      }
    </style>
  </defs>
  <g id="Layer_1-2" data-name="Layer 1">
    <g>
      <path class="cls-1" d="M6.5,5.1L0,121.58l3.71.46c7.73-38.67,15-67.06,21.81-85.15,6.8-18.1,15.31-27.15,25.52-27.15h25.52v297c0,8.05-2.86,13.38-8.58,16.01-5.73,2.63-14,3.94-24.83,3.94v3.25h105.8v-3.25c-10.83,0-19.11-1.31-24.83-3.94-5.73-2.62-8.58-7.96-8.58-16.01V9.75h25.52c10.21,0,18.71,9.05,25.52,27.15,6.8,18.1,14.07,46.49,21.81,85.15l3.71-.46-6.5-116.48H6.5Z"/>
      <path class="cls-1" d="M378.9,22.27C361.42,7.42,342.47,0,322.05,0c-23.2,0-43.39,7.04-60.56,21.11-17.17,14.08-30.32,33.8-39.44,59.17-9.13,25.37-13.69,54.45-13.69,87.24,0,30.63,5.1,58.78,15.31,84.46,10.21,25.68,24.05,45.94,41.53,60.79,17.47,14.85,36.43,22.27,56.85,22.27,23.2,0,43.39-7.03,60.56-21.11,17.17-14.07,30.32-33.8,39.44-59.17,9.12-25.36,13.69-54.45,13.69-87.24,0-30.63-5.1-58.78-15.31-84.46-10.21-25.68-24.06-45.94-41.53-60.79ZM383.07,251.98c-6.03,24.75-14.39,43.93-25.06,57.54-10.67,13.62-22.67,20.42-35.96,20.42-23.51,0-41.07-15.15-52.67-45.48-11.6-30.32-17.4-69.3-17.4-116.94,0-31.56,3.02-59.7,9.05-84.46,6.03-24.75,14.39-43.93,25.06-57.54,10.67-13.61,22.66-20.42,35.96-20.42,23.51,0,41.07,15.16,52.67,45.48,11.6,30.32,17.4,69.3,17.4,116.94,0,31.56-3.02,59.71-9.05,84.46Z"/>
      <path class="cls-1" d="M661.74,349.2c-7.42-9.75-14.08-24.52-19.95-44.32l-18.1-62.18c-5.88-19.79-14.47-34.8-25.75-45.01-11.3-10.21-24.67-17.32-40.14-21.35,13.3-2.16,25.36-7.42,36.2-15.78,10.83-8.35,19.41-18.87,25.75-31.56,6.34-12.68,9.51-26.29,9.51-40.84,0-26.92-8.28-47.49-24.83-61.72-16.55-14.23-40.45-21.35-71.7-21.35h-90.96v3.25c10.83,0,19.1,1.32,24.83,3.94,5.72,2.63,8.59,7.97,8.59,16.01v278.43c0,8.05-2.86,13.38-8.59,16.01-5.73,2.63-14,3.94-24.83,3.94v3.25h105.8v-3.25c-10.83,0-19.11-1.31-24.83-3.94-5.73-2.62-8.58-7.96-8.58-16.01v-132.26l10.67,1.39c11.14,2.48,22.12,8.82,32.95,19.03,10.83,10.21,18.87,24.44,24.13,42.69l17.63,62.65c5.87,20.42,13.76,35.5,23.67,45.25,9.9,9.75,19.79,15.78,29.7,18.1,9.9,2.32,21.5,3.48,34.8,3.48v-3.25c-9.9,0-18.56-4.87-25.99-14.62ZM534.12,171.24c-2.17,0-6.03-.3-11.6-.93l-8.35-.93V10.21h17.63c17.94,0,31.4,7.27,40.37,21.81,8.97,14.54,13.46,35.12,13.46,61.72,0,22.59-3.56,41.15-10.67,55.69-7.12,14.54-20.73,21.81-40.84,21.81Z"/>
      <path class="cls-1" d="M788.42,148.5l-39.44-23.67c-14.85-8.97-26.07-19.49-33.64-31.56-7.58-12.07-11.37-24.28-11.37-36.66,0-13.61,4.56-25.06,13.69-34.34,9.12-9.28,21.27-13.92,36.43-13.92,20.11,0,36.66,10.14,49.65,30.4,12.99,20.27,21.96,46.33,26.92,78.19l3.71-.93-12.07-107.2c-7.12-2.47-16.17-4.56-27.15-6.26-10.98-1.7-23.13-2.55-36.43-2.55-15.78,0-29.78,3.48-42,10.44-12.23,6.96-21.66,16.24-28.31,27.84-6.66,11.6-9.98,24.36-9.98,38.28,0,16.09,4.71,32.02,14.15,47.8,9.43,15.78,23.59,29.86,42.46,42.23l43.62,28.31c12.99,8.05,22.74,18.49,29.24,31.32,6.5,12.84,9.75,26.07,9.75,39.68,0,16.4-4.57,30.32-13.69,41.76-9.13,11.45-21.43,17.17-36.89,17.17-17.02,0-32.1-7.35-45.25-22.04-13.15-14.69-23.59-30.86-31.32-48.49-7.74-17.63-13.15-32.64-16.24-45.01l-3.25.46,19.49,109.98c11.44,4.34,23.74,7.97,36.89,10.91,13.15,2.94,25.13,4.41,35.96,4.41,16.39,0,30.86-4.18,43.39-12.53,12.53-8.35,22.27-19.49,29.24-33.41s10.44-28.92,10.44-45.01c0-18.25-4.87-35.88-14.62-52.9-9.75-17.01-24.21-31.24-43.39-42.69Z"/>
      <path class="cls-1" d="M1103.51,5.1h-95.13v3.25c11.75,0,20.49,1.09,26.22,3.25,5.72,2.17,8.58,6.19,8.58,12.07s-3.41,14.23-10.21,25.06l-98.38,151.75V28.31c0-8.04,2.86-13.38,8.59-16.01,5.72-2.62,13.99-3.94,24.83-3.94v-3.25h-105.8v3.25c10.83,0,19.1,1.32,24.83,3.94,5.72,2.63,8.58,7.97,8.58,16.01v278.43c0,8.05-2.86,13.38-8.58,16.01-5.73,2.63-14,3.94-24.83,3.94v3.25h105.8v-3.25c-10.83,0-19.11-1.31-24.83-3.94-5.73-2.62-8.59-7.96-8.59-16.01v-96.06l43.16-67.29,54.29,148.96c2.47,7.42,3.71,12.99,3.71,16.71,0,6.5-2.32,11.06-6.96,13.69-4.64,2.63-11.6,3.94-20.88,3.94v3.25h200.01v-3.25c-10.83,0-19.11-1.31-24.83-3.94-5.73-2.62-8.59-7.96-8.59-16.01v-138.29h23.2c13.92,0,24.75,3.79,32.48,11.37,7.73,7.58,12.83,19.57,15.31,35.96h3.25l-9.28-100.24h-3.25c-1.55,16.71-5.5,28.77-11.83,36.2-6.34,7.43-15.24,11.14-26.68,11.14h-23.2V10.67h36.2c16.71,0,30.24,3.48,40.6,10.44,10.36,6.96,18.56,16.55,24.59,28.77,6.03,12.22,11.52,28.23,16.47,48.03h3.71l-7.89-92.81h-184.69ZM1135.53,306.74c0,8.05-2.86,13.38-8.58,16.01-4.41,2.03-10.34,3.27-17.77,3.73-8.76-.9-16.29-4.78-22.6-11.62-7.27-7.89-13.69-19.1-19.26-33.64l-65.9-175.41,35.73-55.69c10.21-16.08,20.34-27.07,30.4-32.95,9.93-5.8,21.75-8.74,35.45-8.81,10.39.07,18.37,1.39,23.94,3.94,5.72,2.63,8.58,7.97,8.58,16.01v278.43Z"/>
      <path class="cls-1" d="M1302.12,8.35c10.83,0,19.1,1.32,24.83,3.94,5.72,2.63,8.58,7.97,8.58,16.01v278.43c0,8.05-2.86,13.38-8.58,16.01-5.73,2.63-14,3.94-24.83,3.94v3.25h105.8v-3.25c-10.83,0-19.11-1.31-24.83-3.94-5.73-2.62-8.59-7.96-8.59-16.01V28.31c0-8.04,2.86-13.38,8.59-16.01,5.72-2.62,13.99-3.94,24.83-3.94v-3.25h-105.8v3.25Z"/>
      <path class="cls-1" d="M1602.83,275.42c-6.5,15.94-16.09,28.08-28.77,36.43-12.69,8.35-30.16,12.53-52.44,12.53-3.41,0-6.89-.54-10.44-1.62-3.56-1.08-7.04-2.09-10.44-3.02V28.31c0-8.04,2.86-13.38,8.59-16.01,5.72-2.62,13.99-3.94,24.83-3.94v-3.25h-105.8v3.25c10.83,0,19.1,1.32,24.83,3.94,5.72,2.63,8.58,7.97,8.58,16.01v278.43c0,8.05-2.86,13.38-8.58,16.01-5.73,2.63-14,3.94-24.83,3.94v3.25h184.23l11.14-119.73-3.71-.46c-4.95,27.84-10.67,49.73-17.17,65.66Z"/>
      <path class="cls-1" d="M1825.58,209.75c-4.95,27.84-10.67,49.73-17.17,65.66-6.5,15.94-16.09,28.08-28.77,36.43-12.69,8.35-30.16,12.53-52.44,12.53-3.41,0-6.89-.54-10.44-1.62-3.56-1.08-7.04-2.09-10.44-3.02v-151.28h23.2c13.92,0,24.75,3.79,32.48,11.37,7.73,7.58,12.83,19.57,15.31,35.96h3.25l-9.28-100.24h-3.25c-1.55,16.71-5.5,28.77-11.83,36.2-6.34,7.43-15.24,11.14-26.68,11.14h-23.2V10.67h36.2c16.71,0,30.24,3.48,40.6,10.44,10.36,6.96,18.56,16.55,24.59,28.77,6.03,12.22,11.52,28.23,16.47,48.03h3.71l-7.89-92.81h-186.09v3.25c10.83,0,19.1,1.32,24.83,3.94,5.72,2.63,8.58,7.97,8.58,16.01v278.43c0,8.05-2.86,13.38-8.58,16.01-5.73,2.63-14,3.94-24.83,3.94v3.25h184.23l11.14-119.73-3.71-.46Z"/>
    </g>
  </g>
</svg>